<svg xmlns="http://www.w3.org/2000/svg" width="356" height="356" viewBox="0 0 1424 1424"><path fill="#FAFAFA" d="m711 245 7 1 54 27 23 11 26 13 23 11 44 22 23 11 46 23 23 11 53 26 23 11 48 24 8 5 2 259 1 179v61l-13 12-11 9-14 12-11 9-19 14-18 13-17 12-29 17-50 30-26 15-27 16-18 10-31 15-28 13-29 14-28 13-29 14-4 1-15-8-44-22-19-10-62-31-23-13-29-16-23-13-23-14-18-12-61-40-33-22-13-10-12-10v-2l-4-2-7-8-10-14-1-19-2-162-2-191v-69l1-69 3-3 43-19 29-13 182-80 30-13 43-19 46-20z"/><path fill="#15313F" d="m706 324 9 1 17 8 26 13 7 3 9 4 12 5 15 8 10 4 9 5 10 4 19 10 16 8 12 5 18 9 10 4 17 9 5 2v2l6 2 19 9 11 6 10 4 8 4 12 5 13 6v2l5 1 16 8 15 7v2l5 1 1 5v147l1 40v191l-4 24-5 14-8 11-16 16-11 9-4 2-1-2v-6h-5l-13 11-13 10h-3l11-10 11-9 6-6v-35l1-26v-46l-1-2v-14l1-32v-29l-1-3v-11h6l-1-6-18-10-11-8-15-9-11-8-2-1 1 2v81l1 92v115l-17 10-13 8-12 8-3-1-2-8-1-3-6 2 2-16 2-27 1-1v-50l-2-3-1-12 1-9 1-57v-20l-2-9-1-60-1-14 1-39 2-9h2l-1-8 3-1 1-5-35-20-17-10-7-5 2 107 1 95 1 41v170l-16 10-22 13-6 3-3-1-1-5-11 1 5-6 1-13v-17l1-21v-12l-1-19 1-46v-18l1-22-1-4 1-54v-85h-2l-1-3h2l-1-52v-23l-1-22v-16l-1-2v-49l1-19 1-4v-37h-1v-9l2-2h-2v-16l1-2-1-4-1-10 1-1v-6l-4-4-14-9-18-13-16-12-3-1 2 45 1 100 1 178 1 53 1 158v124l-2 7-5 5-10 7-5 4-5-2-14-9-3-3-2-8-2-25-1-22-1-1-1-14 1-33V885l-1-16v-87l-1-1V487l1-54 5-10v-3l-7 1-11 7-11 8-19 12-10 6-2 2v38l2 149 2 251 1 52v108l-1 9-5-1-13-8-22-12-5-6-3-14h-1l-1-6v-60l-1-51v-26l-1-34V689l1-9h-2l-1-3h3v-10h-3v-3h3l-2-11 1-1 2-21 1-2-10 5-13 8-19 11-8 5-9 1 2 10 2 61 2 214v52l-1 8-6-1-23-13-10-7-4-5-3-9-2-20-3-16v-28l1-3-1-2v-47l-1-24v-53l1-22v-14l-1-3 1-19 3-12 2-5-7 3-22 13-12 7-11 8-8 1 1 6 2 151 1 35-1 10-2 1-10-6-3-2v-2l-4-2-13-13-9-13-6-15-3-13-1-8v-77l-3-290-1-27 8-5 33-14 25-11 14-6 13-6 12-5 13-6 20-9 27-11 15-7 11-5 11-4 15-7 29-13 16-7 11-5 16-6 19-8 9-4z"/><path fill="#5C3814" d="m711 245 7 1 54 27 23 11 26 13 23 11 44 22 23 11 46 23 23 11 53 26 23 11 48 24 8 5 2 259 1 179v61l-13 12-11 9-14 12-11 9-19 14-18 13-17 12-29 17-50 30-26 15-27 16-18 10-31 15-28 13-29 14-28 13-29 14-4 1-15-8-44-22-19-10-62-31-23-13-29-16-23-13-23-14-18-12-61-40-33-22-13-10-12-10v-2l-4-2-7-8-10-14-1-19-2-162-2-191v-69l1-69 3-3 43-19 29-13 182-80 30-13 43-19 46-20zm-2 59-23 11-48 19-14 7-30 13-72 32-24 10-20 9-29 12-33 15-31 13-23 10-1 4 1 127 1 41 2 141v90l2 23 3 19 5 13 8 11 6 5 2 3h2v2l13 10h2v2l6 4 3 1v2l11 7 13 9h2v2l9 5 10 7 16 10 16 11 25 14 16 9 23 12 17 10 11 7 15 9 40 20 19 10 23 13 12 7 16 9 4 1 8-6 18-10 22-11 17-9 28-13 33-16 23-13 22-12 26-13 23-14 39-23 25-17 17-12 11-9 14-14 10-14 1-4h2l6-17 3-13 1-7 2-31V683l-1-152v-29l1-22-3-5-12-7-28-13-25-12-35-17-19-9-17-9-17-8-32-16-25-12-16-8-17-9-10-4-16-8-11-6-7-3-18-8-34-17-9-4z"/><path fill="#071822" d="m746 342 6 1 22 10 12 5 15 8 10 4 9 5 10 4 19 10 16 8 12 5 18 9 10 4 17 9 5 2v2l6 2 19 9 11 6 10 4 8 4 12 5 13 6v2l5 1 16 8 15 7v2l5 1 1 5v147l1 40v191l-4 24-5 14-8 11-16 16-11 9-4 2-1-2v-6h-5l-13 11-13 10h-3l11-10 11-9 6-6v-35l1-26v-46l-1-2v-14l1-32v-29l-1-3v-11h6l-1-6-18-10-11-8-15-9-11-8-2-1 1 2v81l1 92v115l-17 10-13 8-12 8-3-1-2-8-1-3-6 2 2-16 2-27 1-1v-50l-2-3-1-12 1-9 1-57v-20l-2-9-1-60-1-14 1-39 2-9h2l-1-8 3-1 1-5-35-20-17-10-7-5 2 107 1 95 1 41v170l-16 10-22 13-6 3-3-1-1-5-11 1 5-6 1-13v-17l1-21v-12l-1-19 1-46v-18l1-22-1-4 1-54v-85h-2l-1-3h2l-1-52v-23l-1-22v-16l-1-2v-49l1-19 1-4v-37h-1v-9l2-2h-2v-16l1-2-1-4-1-10 1-1v-6l-4-4-5-3-1-3 6 2v2l7 1 3 3 6 17 1 14 1 2v12l-2 8v22l2 12v3l10-4 4-3 2-12 2-3v-17l2-9v-9l-2-4 1-1h6l-2-6 1-5 5-8 5-5 2-5 2-2-1-2 4-2 4-9 2-2h6l1-2 3-1 1-3-6 2-1-3 4-6h2l-1-4-2-1v-6l3-5h6l-4-4-6-3v-2l-5-2-10-6-12-6-12-8-12-6v-2l-5-2-6-5-5-4-11-5-5-3-7-3-15-7z"/><path fill="#B1915C" d="m711 245 7 1 54 27 23 11 26 13 23 11 44 22 23 11 46 23 11 5-4 2 5 4 30 15v2l4 1 5 3v2l5 2v2l6 2v2h2l2 4 4 4 2 3v8l-1 9-1 2 1 3-2 2-13 1-11-4h-3v-2l-10 1v2l-6-2-24-12-19-9-16-8-15-8-26-12-19-10-16-8-21-10-11-6-10-4-23-12-7-3-18-8-34-17-9-4-6-1-23 11-48 19-14 7-30 13-72 32-24 10-20 9-29 12-33 15-31 13-20 9h-3l1 131 1 41 2 141v86l-2 2-1-81-4 12-1 7h-2v7l-4 7-5 4v4l-8-1-4-1-2 4h-2l-1 2h-3l-4-2-2-7-4-2-1 11h-1l-1-69-2-191v-69l1-69 3-3 43-19 29-13 182-80 30-13 43-19 46-20z"/><path fill="#C7A970" d="m711 245 7 1 38 19-4 2-15-7-7-2-6-3v-2l-6-1-4-4-1 3-2 44-2 7-17 8-16 6-26 10-13 6-10 4-10 5-11 5-23 10-10 5-16 7-11 5-12 5-16 7-20 8-13 6-25 11-10 4-9 4-8 4-7 3-25 11-12 5-16 7-11 5-3 1-2 28v48l-1 7-6 21-3 1v3h-4v6l-2 4-3 1h-9l-3 1v-2l-5 2-3 7-1 10-1 3-1 154h-1l-2-188v-69l1-69 3-3 43-19 29-13 182-80 30-13 43-19 46-20z"/><path fill="#071822" d="m691 480 2 4 1 10 1 36v18l1 17 1 21 1 6v28l2 12 2 5 8-3 3 2 9 2h2v-10l1-8 2-18 1-25 1-9v-15l3-5 2 2 1 29 1 98 1 78 1 61 1 193v78l-3 5-13 9-5 4-5-2-14-9-3-3-2-8-2-25-1-22-1-1-1-14 1-33V885l-1-16v-87l-1-1V652l1-39 1-9V500zM591 629l2 2 2 28 1 34 1 12 2 6v12l3 3 5 3h11v-2h2l2-5 1-3 4-20 2-17 2-2h3l1 39v32l2 161 1 60v81l-1 7-5 1-21-12-13-7-5-6-3-14h-1l-1-6v-60l-1-51v-26l-1-34v-55l1-55 1-29v-52l1-21h2z"/><path fill="#9F7D48" d="M709 301h2v3l-25 12-48 19-14 7-30 13-72 32-24 10-20 9-29 12-33 15-31 13-20 9h-3l1 131 1 41 2 141v86l-2 2-1-81-4 12-1 7h-2v7l-4 7-5 4v4l-8-1-4-1-2 4h-2l-1 2h-3l-4-2-2-7-4-2-1 11h-1l-1-72 1-155 1-4 2-11 3-5 5-1v2l3-2h12l2-10h4v-3l3-3 3-12 3-14v-49l2-25 5-5 13-5 14-7 14-5 24-11 16-8 11-4 12-5 27-12 19-8 13-6 13-5 11-5 18-8 8-4 10-4 11-5 16-7 7-4 7-3 22-9 12-5 27-11 13-5z"/><path fill="#060D12" d="m873 402 11 3 11 6 10 4 17 9 5 2v2l6 2 19 9 11 6 10 4 8 4 12 5 13 6v2l5 1 16 8 15 7v2l5 1 1 5v147l1 40v191l-4 24-5 14-8 11-16 16-11 9-4 2-1-2v-6h-5l-13 11-13 10h-3l11-10 11-9 6-6v-35l1-26v-46l-1-2v-14l1-32v-29l-1-3v-11h6l-1-6-18-10-11-8-15-9-11-8v-2l-2-1 3-1 5 2 10 5 5 3 11 7 4 2v2l4 1v2l8 2 7 8 1 2 4 1 4 7v13l2 3 2 15 6 3 1 3 4 1v3l5-1-2-3 1-4h4l2-6 3-12-1-5 1-2 1-15v-11l1-12-1-10v-64l1-29 1-36-1-62-1-12h-2l-4-4-2-1v-2l-16-8-17-9-15-8-19-9-16-8-19-9-13-8-17-8-24-12z"/><path fill="#845E2D" d="M363 750h1l1 106 1 2 2 23 3 19 5 13 7 10 7 6 3 3v2l4 2 11 8v2l5 2 4 3v2l5 2 7 5-2 1 2 3v3l4 2 1 2-5 1 1 5 7 10 5 7 3 3 3 10 5 5 2 4 4 2 3 5 5 3v2h2l2 4-1 4-5 1h-3l-3-2-5-1-6-3-9-6-7-4v-2l-10-2-26-17-33-22-13-10-12-10v-2l-4-2-7-8-10-14-1-19V809h3l4 4v5l3-1 1 2 4-1 6-5 6 2h3l1-4 5-4 3-7 3-13 4-12z"/><path fill="#071821" d="M488 715h2l2 9 1 15 2 4 1 16 1 6 1 16 1 8v2l6-1 2 1 2 7v9l4-2 2-2 2 1v-5l2-3h2l1-13 2-6v-10l4-20 1-3 3-1 1 14 1 156 1 73v9l-2 7-7-1-25-14-8-7-2-9-2-25-1-35-1-98z"/><path fill="#030B11" d="M794 560h2l1 9v56l1 41 1 33 1 70v14l2 21 1 8 1 22 1 3v8l1 1v16l1 17 1 9h-2l2 7v24l2 3v8l-2 2v5l3 2v-6l2-1 3 5 8 1 1 4 5-1 2-25 1-43v-37l-1-10v-28l1-6v-47l1-19 1-7 3-3 1 5 1 16 1 96 1 40 1 2v161l-16 10-22 13-7 1-2-7-1-81-1-165-1-62-1-124v-27z"/><path fill="#030A10" d="m691 627 2 1 1 8 1 34 1 44 1 61 1 6 1 23v13l1 22v19l1 5 1 15 1 35 2 23 1 12 2 4-1 9 1 1 1 23 1 2 1-10 1-6 1-1h7v8l-4 1 2 4 2 1 1 15 1 7h2l-1-2v-7l2-12v-8l2-7-1-3-2 1-3-5 4-1 1-11v-13l3-16v-35l1-14v-14l1-21v-22l1-48 2-9v-23l2-2 1 21 1 61 1 193v78l-3 5-13 9-5 4-5-2-14-9-3-3-2-44-2-103v-47l-1-117-1-71v-74z"/><path fill="#FAFAFA" d="m503 464 4 1 6 9 11 15 12 17 10 15 13 18 9 11 4 5v2l-15-1-26-5-6-2-1 22v27l2 12 4 12-2 4-13 5-16 8-16 9h-1v-13l3-35v-23l-1-17v-12l-13 6-16 4-9 2-6 2h-4l2-5 15-22 15-23 14-19 12-16 8-11zm418 11 4 1 10 14 10 13 11 14 14 18 8 11 10 11 4 5v2l-13-2-26-6-7-2-1 6v87l-5-2-6-3-16-9-13-8-5-4 5-15 1-7v-49l-12 5-8 3-15 2-12 3h-2l1-4 9-12 7-10 11-14 7-11 11-13 12-16z"/><path fill="#030A10" d="m897 677 2 1 1 16 1 31 2 20v10l2 21v9l2 12 1 15v27l2 16 2 8v9l1 1 1 9v-12h2l2 10v3l8-1 1 5 1 11h2v-8l1-3v-9l2-19v-50l-1-12 1-9v-7l1-7v-18l1-11 1-27 3-20 2 2 1 4v85l2 193-17 10-13 8-10 7h-3l-2-7-1-8v-72l-1-78-1-43-1-65v-24l1-28z"/><path fill="#7B5629" d="m867 321 5 1 19 9 66 33 11 5-4 2 5 4 30 15v2l4 1 5 3v2l5 2v2l6 2v2h2l2 4 4 4 2 3v8l-1 9-1 2 1 3-2 2-13 1-11-4h-3v-2l-10 1v2l-6-2-24-12-19-9-16-8-15-8-26-12-8-5 3-1 1-2 6 2h6l4 3 7 1v2l7-1 5-8h2l-1-7 2-3-2-8-2-6-6-4-4-3v-2l-3-1-1-3-5-2-8-4-3-3-5-2-11-7z"/><path fill="#B2925C" d="M709 301h2v3l-25 12-48 19-14 7-30 13-72 32-24 10-20 9-29 12-33 15-31 13-20 9h-3l1 131 1 41-1 7h-1l-1-34-1-119-1 28v115l-2 12-1 8-1 14-4 7v7h-6l1 3-3 1v2l-7 2-3-1-6 3h-5v-7l-4 6-2 8h-1v-96l1-4 2-11 3-5 5-1v2l3-2h12l2-10h4v-3l3-3 3-12 3-14v-49l2-25 5-5 13-5 14-7 14-5 24-11 16-8 11-4 12-5 27-12 19-8 13-6 13-5 11-5 18-8 8-4 10-4 11-5 16-7 7-4 7-3 22-9 12-5 27-11 13-5z"/><path fill="#071721" d="m382 713 3 1 1 9v8l1 7v5l1 5 1 8 1 20 2 23 1 3 4 2 4 9v3h5l2-5 4-2 2-6 4-11 2-23 2-21 2-8 3-3h1l1 10 2 161v26l-7-1-7-5v-2l-4-2-13-13-9-13-6-15-2-15-1-8z"/><path fill="#7C5729" d="M364 863h1l3 17 3 20 5 13 7 10 7 6 3 3v2l4 2 11 8v2l5 2 4 3v2l5 2 7 5-2 1 2 3v3l4 2 1 2-5 1 1 5 7 10 5 7 3 3 3 10 5 5 2 4 4 2 3 5 5 3v2h2l2 4-1 4-5 1h-3l-3-2-5-1-6-3-9-6-7-4v-2l-10-2-26-17-33-22-13-10-12-10v-2l-4-2-7-8-10-14v-13l3 1v2h2v2h-2l3 4 2 4v3l5 2 1 3 4 2 8 5 3 2v2h2v2h2l5 6 2 1 3 5v2h2l1 4 7 1 11 6 2-1v-5l-6-7-7-3v-2l-5-2-3-3v-2h-3l-3-5-3-1v-2h-2l-1-5 3-3h2l2-4 4-6 5-1-1-10-4-13-2-6 1-6-2-11h2v-11z"/><path fill="#030A11" d="M590 672h2l1 23 1 10v57l2 70v14l1 34 1 27 2 26 1 3 1 21 2 10 3 5-2 6 5-1v2h4l3 12 3 8 2 7v5l-1 1-1 12-2 2-8 1v-2l-4 4 3 6 6 2 3 5 6 5h5l2-5-4-30v-13l1-13 1-5 1-28v-48l1-14v-50l1-5 1-7 2 4 1 11 2 128v81l-1 7-5 1-21-12-13-7-5-6-3-14h-1l-1-6v-60l-1-51v-26l-1-34v-55l1-55 1-29v-29z"/><path fill="#9F7E49" d="m787 284 10 1 24 12 23 11 24 12-1 4 4 2 8 5 7 3v2l5 2 8 4v2l4 2v2l4 2 7 5 2 6 2 9-2 4v5l-4 4-2 5h-8l-8-3-5-2-6-1-4-1-5 2-21-10-16-8-17-9-10-4-16-8-10-6 2-1 9 4v-2l7-1 1 1h6l3-6 3-2 1-8 3-2-2-2-3-11-2-1-3-5-8-9-6-4-8-3z"/><path fill="#3F240C" d="M1050 931h3l-2 5-2 3h-2l-2 7h-2l-1 4-2 4h-2l-2 5-7 7h-2l-1 3-8 5h-3l-1 3-9 7-6 4-6 5-5 2-3 2h-3v2l-8 6-4 2-4 4h-2l-2 4-14 9-7 3-6 2-14 5-4 2-19 10-7 2-2-1v2l-4 2-4 4-12 5-3 2h-3v2l-18 8-14 7-18 6-14 6-8 5-3 4h-2l-1 2-6 4-3 3-9 7-2 2-14 5-4 1-5 1h-5v2h-3v2l-5 1-7-2 2-4 15-8 24-11 22-12 37-18 16-8 21-11 16-8 17-9 11-6 5-3 8-3 24-14 4-4 22-13 24-16 22-15 2-2 5-2 11-9 10-9 9-11z"/><path fill="#8E6A37" d="m867 321 5 1 19 9 58 29v1l-7-1-14-7v-2l-6-2-8-4h-2l-1 2 5 1 13 7 5 4 5 3v2l6 1 6 9 3 5 5 5 3 2 1 9-1 9-4 5h-11l-4 1v-2h-9v4l-5-2-19-9-32-16-3-3h3l1-2 6 2h6l4 3 7 1v2l7-1 5-8h2l-1-7 2-3-2-8-2-6-6-4-4-3v-2l-3-1-1-3-5-2-8-4-3-3-5-2-11-7z"/><path fill="#8D6A36" d="M363 750h1v58l-5 19v5h-2l-1 10-1 2-1 12h-2l-1 7-6-1-2-2-13 1v-2l-4-1v-2h-2l-1-2-5-1-1 60h-1V809h3l4 4v5l3-1 1 2 4-1 6-5 6 2h3l1-4 5-4 3-7 3-13 4-12z"/><path fill="#354444" d="M789 462h2l1 4 1 17 1 52v23l-1 36v27l1 124 1 62 1 165 1 81 1 7 3 1-4 1-2-6-11 1 5-6 1-13v-17l1-21v-12l-1-19 1-46v-18l1-22-1-4 1-54v-85h-2l-1-3h2l-1-52v-23l-1-22v-16l-1-2v-49l1-19 1-4v-37h-1v-9l2-2h-2v-16l1-2-1-4-1-10 1-1z"/><path fill="#422813" d="M1113 816h1l1 63v61l-13 12-11 9-14 12-11 9-19 14-18 13-17 12-29 17-25 15-12 7v-3l2-3h2v-2l7-2v-2h3l2-4h5v-2l9-7 7-4 5-4 7-4 6-3 8-6 6-2v-2l5-1v-2l5-1v-2h3v-2l5-3h3v-2l8-7h2v-2l5-2 5-6 5-2 2-4h2v-2l5-2 6-5 11-11h2l2-4h2v-2l5-5 4-6 2-5 1-18v-14l1-1v-11l3-15 2-7 1-48z"/><path fill="#845E2D" d="m912 344 6 2 10 5 1 2 15 7 3 3 9 6 8 7 5 2v2l11 6 1 2 6 3 1 4 6 2 1 4-1 7-2 2-2 11-2 3-12 1-4-2-5-1-6-2-6-1-5-2-10-1-6-3-1-6h7l4 2 4-1h10l3-4 1-13v-5l-4-2-5-5-3-5-2-4-2-1-2-3-5-2-3-3-5-2-5-5-10-5-5-2z"/><path fill="#4A5148" d="m897 661 1 4-2 45v24l1 65 1 43 1 82v68l2 13 1 3-3-1-2-8-1-3-6 2 2-16 2-27 1-1v-50l-2-3-1-12 1-9 1-57v-20l-2-9-1-60-1-14 1-39 2-9h2l-1-8 3-1z"/><path fill="#0D1C24" d="M709 301h2v3l-25 12-48 19-14 7-30 13-72 32-24 10-20 9-29 12-33 15-31 13-23 10h-2l2-4 11-5 16-7 12-5 27-12 16-8 11-4 12-5 27-12 19-8 13-6 13-5 11-5 18-8 8-4 10-4 11-5 16-7 7-4 7-3 22-9 12-5 27-11 13-5z"/><path fill="#412610" d="M935 1062h3v3l-53 31-21 12-33 16-28 13-29 14-28 13-29 14h-3l1-6 6-1v-2h2v-2l4-1v-2l6-3 18-7 6-1 6-3 1-2 5-2h3v-2l9-2v-2l8-1v-2l11-4 9-5 7-3 6-3h3v-2l13-6 11-5 15-6 4-3 5-1v-2l21-11 4-1v-3l4-2h3v-2l10-5 5-1 1-3 7-3 5-3z"/><path fill="#A07E49" d="M900 1031h5v2l-10 6-16 8-17 9-48 24-35 17-12 7-23 11-19 9-12 2 5-5 14-8 19-10 32-16 31-15 23-11 16-9 2 2 10-5 18-10z"/><path fill="#454E47" d="M689 639h2v70l1 71 1 127v37l2 103 1 28v13h-1l-2-16-2-36-1-1-1-14 1-33V885l-1-16v-87l-1-1V652z"/><path fill="#040C12" d="M487 802h3l1 2 2 31 1 50v10l2 26v44l4 10 1 6h2v2l5 2v2l4 2 2 3-6-1-11-7-4-4-2-9-2-25-1-35-1-98z"/><path fill="#304244" d="M1000 729h2l-1 6-1 56v118l2 21 2 13-3 1-1-2v-6h-5l-13 11-13 10h-3l11-10 11-9 6-6v-35l1-26v-46l-1-2v-14l1-32v-29l-1-3v-11h6z"/><path fill="#060E15" d="M929 480h3v2l3-1v2l4 2 2 4v4l4 2v2l4 2 9 9v2l3 1 1 4h2l1 3 6 5 6 11 7 8 2 1v3h2l6 13v3l-4-1-9-10-11-14-9-12-11-14-10-13-11-15z"/><path fill="#553819" d="m981 979 2 1-5 6-20 12-13 8-5 4h-2l1 2 2 1-20 12-9 5-7 2-7 1-16 8-19 10-8 4-2-1 4-4 16-9 44-23 26-16 21-12z"/><path fill="#081116" d="m946 553 27 7 1 3h-2v2h-2l-1 2-12-3h-4l-2 13-1 11v17l1 6v31l-4 2-2-13-1-71z"/><path fill="#B2925C" d="M797 1080h2l-1 3-4 3h-2l-1 5-23 12-32 16-11 5-12 2 5-5 14-8 19-10 32-16z"/><path fill="#1F3740" d="M586 790h1l1 53 2 46v26l2 50 1 51 2 22-2-2-3-14h-1l-1-6v-60l-1-51v-26l-1-34z"/><path fill="#2D4043" d="M689 639h2v70l1 71v99l-1 6h-1l-1-16v-87l-1-1V652z"/><path fill="#0B1215" d="M904 550h2v48h-3l-3-8-2-23-1-4-25 2-9 2-3-3 9-4 8-2 9-1 10-4z"/><path fill="#6A471F" d="M364 863h1l3 17 3 20 5 13 7 10 7 6 3 3v2l4 2 11 8v2l5 2 4 3v2l5 2 3 2-1 4-3 1-6-5-4-2v-2l-4-1-2-4-11-7v-2h-3l-5-5-1-3-3-1-3-3-4-7-3-3v-5h-2l-5-12v-3l-2-14 1-5z"/><path fill="#1C3540" d="m897 661 1 4-2 45v89h-1l-2-14v-51h-2l-1-14 1-39 2-9h2l-1-8 3-1z"/><path fill="#243A41" d="M635 742h1l1 30 1 122 1 52v108l-1 9-5-1 3-2 1-7v-81l-2-144-1-85z"/><path fill="#15313F" d="M789 462h2l1 4 1 17 1 52v23l-1 36v65h-1l-1-9v-29h-2v-29l1-10 1-17v-63h-2v-16l1-2-1-4-1-10 1-1z"/><path fill="#563A1B" d="m1022 950 2 1-2 2v3l-3 1-2 5-12 9-36 24-30 18-2-1 4-4 10-7 14-8 14-9 5-7 15-10 17-12z"/><path fill="#513315" d="m487 397 2 1-5 3h-2v2l-9 3-25 11-3 3-29 13-31 13-23 10h-2l2-4 11-5 16-7 12-5 27-12 16-8 11-4 12-5z"/><path fill="#45341F" d="M566 363h2v2l-14 6-3 3-36 16-19 8-18 8-29 12-4-1 23-10 7-3 7-1v-2l6-3 3-3 46-19 10-5 13-5z"/><path fill="#030A11" d="m531 895 2 1 1 17v60l-4-4-2-21 1-34 1-7-1-4z"/><path fill="#633F19" d="m323 939 3 1v2l4 2 5 4v2l5 2 7 8 9 9 10 6 6 5 7 3 1 3 6 5 5 1 1 3h3l5 5h3l1 2 3 1 4 4 8 4 1 3-4-1-20-13-33-22-13-10-12-10v-2l-4-2-7-8-4-5z"/><path fill="#B1915B" d="m359 454 1 2h2l1 130 1 41-1 7h-1l-1-34-1-119-1 18-2 2-1-20 2-25z"/><path fill="#1D3640" d="M897 920h2v72l2 13 1 3-3-1-2-8-1-3-6 2 2-16 2-27 1-1 1-26z"/><path fill="#273C42" d="M534 831h1l1 113v52l-1 8-6-1 4-2 1-6v-19l-1-63v-76z"/><path fill="#A1804A" d="m759 1099 3 1-8 4 2 5-17 8-14 7-12 2 5-5 14-8 19-10z"/><path fill="#253A41" d="M588 637h1v69l-1 32-1 51h-1V689l1-9h-2l-1-3h3v-10h-3v-3h3l-2-11 1-1 1-14z"/><path fill="#B2925C" d="M789 504h1l1 5h1v56l-1 23-1 4-1 29h2l1 38-2 3-1-22v-16l-1-2v-49l1-19 1-4v-37h-1z"/><path fill="#1A343F" d="m486 902 2 1 1 8 1 35 2 25 1 7-2-2-2-7-2-20-3-16v-28z"/><path fill="#08131A" d="m384 869 4 4 1 9 2 1 3 14h2l3 7 3 5 8 7 7 6v3l4 1v2h-4v-2l-4-2-13-13-9-13-6-15-1-4z"/><path fill="#464F48" d="m688 534 1 3h2v67l-1 9h-2z"/><path fill="#896533" d="m998 972 2 2-14 10-17 11-30 18-2-1 4-4 10-7 14-8 14-9 11-7z"/><path fill="#AE8D57" d="M900 1031h5v2l-10 6-16 8-17 9-5 1v-4l8-4 18-10z"/><path fill="#2E2B23" d="m618 341 2 1-3 3-30 13-29 13-5 1 1-2 11-5h3v-3l8-4 10-4 11-5 13-4z"/><path fill="#3B4846" d="M586 790h1l1 53 2 46v25h-2v5h-1v-40l-1-34z"/><path fill="#081218" d="m855 630 7 1 5 4 5 1v2l5 2 3 1v2l6 3v2l4 1 3 2v2l5 1-3 1-16-8-16-9-8-5z"/><path fill="#3E4A46" d="M792 659h1v78l-1 3h-2l-1-3h2l-1-52v-22z"/><path fill="#404B47" d="M789 462h2l1 4 1 17v52h-1l-1-33h-2v-16l1-2-1-4-1-10 1-1z"/><path fill="#432C16" d="m636 1083 5 1 19 10 14 8v3l-13-4v-2l-7-2-4-4-8-3-6-4z"/><path fill="#B2925C" d="M485 712h1v64l-1 3 1 4-1 9-1 37h-1v-53l1-22v-14l-1-3 1-19z"/><path fill="#3C2A18" d="m593 1061 4 1 36 18-1 2-9-2-3-1v-2l-6-1-18-10-3-3z"/><path fill="#1C2A2E" d="m896 1029 2 1-10 8-14 7-11 6-8 4-2-1 4-4 16-9z"/><path fill="#091B25" d="m544 516 5 4 7 10 7 8 3 3v2h2l6 12-6-4-8-9-13-18-3-4z"/><path fill="#55584A" d="M691 879h1l1 28-1 37-1 15h-1v-73z"/><path fill="#192D35" d="m509 390 3 1-25 11-21 9-17 7-4-1 23-10 7-3 7-1v-2l6-3 10-4z"/><path fill="#263B41" d="M1000 729h2l-1 6-1 16-2 4-1 9h-1l-1-16-1-3v-11h6z"/><path fill="#030B11" d="m692 586 2 2 1 4v17l-2 12h-2l-1-8v-21z"/><path fill="#4F3C24" d="m394 438 2 1 1 2-30 13-7 2 2-4 11-5 16-7z"/><path fill="#8B6734" d="M831 1068h5l-3 3-23 11-12 5-2-2 12-7 14-6 8-3z"/><path fill="#AE9267" d="M724 252h6l26 13-4 2-15-7-7-2-6-3z"/><path fill="#30312B" d="M442 418h2v2l-23 11-22 9-4-1 3-3 12-5 9-2z"/><path fill="#B1905A" d="M776 1090h2l1 5h-6l-5 4h-3l1 3-3 3-3 2-5 1v-3l-2-1 8-5 3-3z"/><path fill="#7C5A2D" d="m853 1052 2 2 3 1-1 3-19 10-1-3h2v-2l5-2 1-4z"/><path fill="#B59B73" d="m768 272 9 3 18 9v1l-11-1-4-2v-2l-3 1-6-4-5-2 1-2z"/><path fill="#081922" d="M511 470h2l12 15v3l3 1 6 10-2 1-5-5-14-20-2-2z"/><path fill="#563716" d="m653 324 2 1-4 1v2l-13 5-14 7-10 4-9 4-3-1 15-7 12-6 20-8z"/><path fill="#B2925C" d="M895 954h1v25h-1l-2 16h2l1-4 1 3-1 2-6 2 2-16 2-27z"/><path fill="#382B1C" d="M709 301h2v3l-20 10-1-2-10 4-4-1 20-8z"/><path fill="#7C5729" d="m317 889 3 1 3 9-2 2-1 12-1 3h-2z"/><path fill="#282017" d="M688 312h2v2l-19 8-11 2h-5l3-2 16-6 12-3z"/><path fill="#805B2B" d="m998 972 2 2-14 10-14 9-2-2 3-3 7-5 9-5z"/><path fill="#B2925C" d="M893 672h2v14l-2 13-1 18h-1v-36zm51-97h1v45l-2 1-1-16 1-27z"/><path fill="#423422" d="m520 383 6 1-4 3-7 3-9 2-14 5-3-1 24-10z"/><path fill="#AF9673" d="m903 338 6 2 40 20v1l-7-1-14-7v-2l-6-2-17-8z"/><path fill="#463823" d="m981 979 2 1-5 6-20 12-2-1 1-3 20-12z"/><path fill="#B2925C" d="M892 734h1l1 16v35l1 4v14h-1l-2-9zm102 198 1 2 5-1v3h-5l-13 11-13 10h-3l11-10 11-9z"/><path fill="#2E4043" d="M895 799h2v41h-1l-1-15-1-2v-15z"/><path fill="#604626" d="m953 421 7 1 19 10 9 4 1 3-6-2-30-15z"/><path fill="#C2A36B" d="M785 1091v3l-18 10-6 1 4-4v-2l5-1 1-3 4-1 6-1z"/><path fill="#69451D" d="m389 991 3 2v2h3l5 5h3l1 2 3 1 4 4 8 4 1 3-4-1-20-13-9-6z"/><path fill="#B49662" d="M484 905h1l2 8v28l-2-2-1-13v-13z"/><path fill="#3B2A18" d="m568 1046 5 1 10 6 7 5 1 3-5-1-15-10z"/><path fill="#795427" d="m1022 950 2 1-2 2v3l-3 1-2 5-12 9-5 2 2-4 11-8z"/><path fill="#09141B" d="m400 908 6 4 9 9 2 1v3l4 1v2h-4v-2l-4-2-13-13z"/><path fill="#BB9C64" d="m733 1112 2 3-2 1-1 3-12 5-4 2-3-1 10-7z"/><path fill="#A98852" d="m843 1058 1 3-5 2v2h-2v3l-13 2-1-2z"/><path fill="#513B20" d="m904 1025 1 3 5-3h4v2l-8 5h-6l-5 2-3-1 5-3 3-3z"/><path fill="#030B11" d="M590 672h2l1 18-2 4h-2l-1-17z"/><path fill="#8A6633" d="m747 1108 7 1-4 3-14 7h-2l2-4 3-1 5-5z"/><path fill="#1E3640" d="M638 1000h1v50l-1 9-5-1 3-2 1-7z"/><path fill="#314244" d="m487 942 1 4h2l2 25 1 7-2-2-2-7-2-20-1-4z"/><path fill="#374645" d="M588 889h2v25h-2v5h-1v-21z"/><path fill="#152329" d="m746 342 6 1 11 5 10 4-2 1v2l-5-2-15-7z"/><path fill="#1D2E35" d="m509 390 3 1-25 11-7 3v-2h2v-2l6-3 10-4z"/><path fill="#A07E49" d="M900 1031h5v2l-10 6h-7l1-3z"/><path fill="#17313E" d="M534 966h2v30l-1 8-6-1 4-2 1-6z"/><path fill="#866130" d="M811 1077h4l-1 3-16 7-2-2 12-7z"/><path fill="#B2925C" d="M790 1038h1v11l4-1v3h-2v2h2v2l-11 2 5-6z"/><path fill="#233032" d="m896 1029 2 1-10 8-6 3-4-2 4-3z"/><path fill="#BFA884" d="m737 257 5 1 14 7-4 2-16-8z"/><path fill="#9B7C49" d="m759 1099 3 1-8 4 2 5h-12l1-3z"/><path fill="#192427" d="M491 642h6v2l-15 8h-2v-3z"/><path fill="#0F1F28" d="m779 453 6 2v2l7 1 3 3-1 4-1-1-2 2v-4l-5-2-6-4z"/><path fill="#16262C" d="m745 429 8 2 5 6 2 1v2l-4-1-10-7z"/><path fill="#1E2728" d="m706 324 9 1-1 3h-10l-4 2h-5l3-3z"/><path fill="#B9A17C" d="m713 245 5 1 10 5-4 2-6-1-5-5z"/><path fill="#111B20" d="m720 329 5 1 11 5 3 3-3 1-16-8z"/><path fill="#A3814C" d="m829 1068 2 1-5 3-11 4-3-1v-2l9-4z"/><path fill="#3C4946" d="m689 593 2 2v9l-1 9h-2v-19z"/><path fill="#4A351E" d="M537 376h2v2l-4 1v2l-6 3-7-1 4-3z"/><path fill="#916D3A" d="m968 991 3 1v2l-12 7-2-1 1-3z"/><path fill="#1C2525" d="M511 632h2l-1 4-12 7-2-1 4-5z"/><path fill="#3B2F20" d="m549 1034 14 7 5 4-7-1-11-7z"/><path fill="#997F60" d="m950 361 14 6 4 3h-8v-2l-4-1-6-3z"/><path fill="#0E1A20" d="m618 341 2 1-3 3-14 6h-5l2-3 10-3z"/><path fill="#65624D" d="M789 462h2l1 4v9l-1 9-2-4-1-10 1-1z"/><path fill="#223840" d="m897 661 1 4-1 17h-2l-1-18 3-1z"/><path fill="#4E2F12" d="M508 388h4v2l-20 7-3-1z"/><path fill="#BCA47E" d="m781 279 6 1 8 4v1l-11-1-4-3z"/><path fill="#412E1A" d="M862 1047h6l-5 4-8 4-2-1 4-4z"/><path fill="#A58A59" d="M895 954h1v17l-3 1 1-17z"/><path fill="#030A10" d="M795 516h1v17h-2l-1-15z"/><path fill="#091C27" d="M511 470h2l8 10-1 3-5-5-4-5z"/><path fill="#49351E" d="m369 449 4 1-4 3-9 3 2-4z"/><path fill="#604321" d="M380 444h3v3l-10 4-3-3z"/><path fill="#B2925C" d="m892 889 4 3v12l-3-3z"/><path fill="#10232C" d="M688 312h2v2l-14 6-2-1 2-3 10-3z"/><path fill="#805B2C" d="M909 1025h5v2l-8 5-5-1 4-3z"/><path fill="#040E15" d="m529 997 5 1-1 4-7-1-1-3z"/><path fill="#5A5948" d="M944 623h1l2 25-3 1z"/><path fill="#191E1D" d="m845 625 10 3 1 2-1 2-6-2-4-3z"/><path fill="#6D4E27" d="m975 430 11 5 3 2v2l-6-2-8-4z"/><path fill="#8A6737" d="m363 854 3 4 1 12h-2l-1-5h-1z"/><path fill="#1A282C" d="M632 335h5l-3 2-13 6-2-1 1-2 10-4z"/><path fill="#A78B59" d="M776 1090h2l1 5h-6l-4 1 1-3z"/><path fill="#987642" d="M865 1049v5l-6 3-2-1v-3z"/><path fill="#886432" d="m980 985 2 1-10 7-2-2 3-3z"/><path fill="#4F351A" d="M688 310h4l1 3-3 1v-2l-10 4-4-1z"/><path fill="#68441C" d="m425 1016 7 3v2l4 2v3l-11-7z"/><path fill="#030C13" d="M590 672h2v9l-3 1-1-5z"/><path fill="#7E592A" d="m946 1000 2 1-2 4-7 4-2-1 4-4z"/><path fill="#6C4820" d="m389 991 3 2v2h3l2 5-9-5v-3z"/><path fill="#94713D" d="M729 1119h5l-4 3-8 3h-5l3-2z"/><path fill="#846333" d="m853 1052 2 2 3 1-1 3-3 2-3-1 1-1-2-2h2z"/><path fill="#49321B" d="m1103 437 5 1 4 3-2 4-3-3v-2l-4-2z"/><path fill="#492D12" d="m487 397 2 1-5 3h-2v2l-7 2 1-3z"/><path fill="#4F5449" d="M790 1050h2v6l-8 1z"/><path fill="#071822" d="M818 941h3l1 5-4 2v-2h-2z"/><path fill="#A68A59" d="m994 932 1 2 5-1v3h-5l-2 2h-3l2-4z"/><path fill="#B2925C" d="m995 746 4 4-1 5-1 9h-1z"/><path fill="#040F17" d="m897 677 2 1v7l-1 1-1 7h-1v-11z"/><path fill="#8B6634" d="m804 1080 3 1-1 3-8 3-2-2z"/><path fill="#B2925C" d="m484 928 3 1v12l-2-2z"/><path fill="#07141C" d="m920 635 5 1 7 4v2l-4-1-3-1v-2l-4-1z"/><path fill="#726649" d="m946 553 4 2-3 1-2 15h-1v-11z"/><path fill="#1B2A2F" d="M660 323h6l-3 2-7 3-3-1h2v-3z"/></svg>