<svg xmlns="http://www.w3.org/2000/svg" width="100" height="100" viewBox="0 0 1600 1600"><path fill="#FCFCFD" d="m805 276 6 1 20 10 19 10 42 20 88 44 23 11 17 8 60 30 23 11 39 19 34 17 23 11 25 12 24 14 5 4 3 5 1 280 1 132v138l-3 5-9 9-14 11-11 10-14 11-18 14-38 26-20 13-23 14-27 16-17 10-24 14-26 15-27 15-19 10-30 15-23 11-20 9-16 8-38 18-16 8-11 8-5 2-26-15-88-44-19-10-17-9-16-8-24-13-23-13-18-10-17-10-21-13-19-12-20-13-25-16-33-22-22-15-16-12-10-8-16-15-14-15-2-6-2-18-3-219-2-325 4-8 10-7 26-12 30-13 33-15 27-12 25-11 39-17 103-45 60-26 27-12 14-6 18-8 21-10z"/><path fill="#071823" d="M803 369h7l5 3 24 11 16 8 25 12 20 9 29 14 19 9 16 8 33 16 21 10 16 8 17 8 16 8 35 17 28 13 36 17 13 8 3 4v141l2 107 1 70v85l-2 28-4 18-5 13-7 12-13 14-10 10-16 13h-1l-1-59V820l-5-5-11-8-31-20-15-7 1 7v173l1 141-9 7-19 12-21 12h-2l-1-5-1-44-1-127-1-84V750l3-1-5-11-5-5-10-5-18-11-11-7-13-8-2-1 1 197 2 265-6 5-17 10-14 8-15 8h-2l-1-17-1-151-1-66-2-82-1-53-1-297-3-7-7-6-5-6-12-8v-2l-5-2-13-10-21-11 2 7 4 32 1 21 1 51 1 84 2 391v154l-3 9-6 5-12 7-5 2h-7l-10-7-6-12-2-16-1-15-3-98-3-159-1-88V619l1-80v-37l4-11 4-20-11 4-9 5-39 26-8 6-3 3-1 28 2 107 2 76 2 217 1 75 1 108v67l-5-2-5-4-19-9-14-10-9-7-3-4-2-14-1-27-1-89-1-163V710l-7 1-19 11-18 11-14 9-3 7v58l2 91 2 130 1 100-5-2-10-6-12-6-14-10-5-3-5-6-4-9-1-6-1-173V807l1-20-6 1-9 6-16 10-11 8-12 7h-2v2l-5 3-2 4v121l1 63 1 39-5-2-25-20-9-11-8-12-5-14-2-9-2-29-1-120-1-172-1-85-1-46 4-6 22-10 42-18 13-6 28-12 26-11 11-5 35-15 53-23 72-31 43-18 11-5z"/><path fill="#4F1D01" d="m805 276 6 1 20 10 19 10 42 20 88 44 23 11 17 8 60 30 23 11 39 19 34 17 23 11 25 12 24 14 5 4 3 5 1 280 1 132v138l-3 5-9 9-14 11-11 10-14 11-18 14-38 26-20 13-23 14-27 16-17 10-24 14-26 15-27 15-19 10-30 15-23 11-20 9-16 8-38 18-16 8-11 8-5 2-26-15-88-44-19-10-17-9-16-8-24-13-23-13-18-10-17-10-21-13-19-12-20-13-25-16-33-22-22-15-16-12-10-8-16-15-14-15-2-6-2-18-3-219-2-325 4-8 10-7 26-12 30-13 33-15 27-12 25-11 39-17 103-45 60-26 27-12 14-6 18-8 21-10zm0 62-9 3-18 8-16 9-28 13-30 13-15 7-43 19-60 27-30 13-31 14-62 27-42 17-8 4v67l1 100 2 152 1 112 1 32 2 23 3 15 5 12 7 12 18 18 16 12 18 13 39 26 20 13 25 15 24 14 28 15 35 20 15 9 21 11 8 5 23 11 23 12 24 14 18 10 6 5 9 4 8-1 8-4 3-2v-2l4-2 3-1v-2l6-2 14-8 9-4 19-9 17-9 16-7 19-10 16-8 25-14 10-6 20-10 23-13 13-7 18-11 11-6 18-11 11-7 13-8 19-13 14-11 12-10 2-1v-2l4-2 5-4 7-8 8-8 11-18 5-12 5-18 1-20 1-399 1-23v-12l-2-4-11-7-33-16-68-34-23-12-16-8-17-9-19-9-9-3v-2l-23-11-9-3v-2l-23-11-5-1v-2l-16-7-16-8-7-2v-2l-28-12-12-5-16-8-27-13-15-9z"/><path fill="#E3AA5E" d="m805 276 6 1 20 10 19 10 42 20 88 44 23 11 17 8 60 30 23 11 39 19 34 17 23 11 25 12 10 6-2 1-41-19-38-18-28-13-48-23-29-14-32-16-26-12-42-21-19-9-16-8-29-14-20-9-29-14-24-11-3-2v4l5 1 10 5 16 7 28 13 21 10 9 5 13 6 3 1 1 2 8 3 19 10 13 7 7 4 10 4 11 6v2l4 2 8 5v2h4l6 2-1 2h-2v3l4 1 10 6 6 4 5 4 3 2 8 2 1 2 3 4v6l2 2v5h-9l-2 2 2 6v3h-10l-5-2-8-2-19-10-7-3 1 2-12-3v-2l-5-1-23-11v-2l-9-3-16-8-14-6v-2l-10-3-18-8-12-5-16-8-27-13-15-9-4-1-9 3-18 8-16 9-28 13-30 13-15 7-43 19-60 27-30 13-31 14-62 27-42 17-7 3v67l1 100 2 152 1 112 1 32 2 23 2 13h-3l-2-7-1-13-2 10-1 14-5 2-7-1h-7l-2-1v-2l-10 2-6-3-2-11-1-19-2-3-1-8-2-1v16l-1 10 1 2v7l-1 4v21l1 11-1 4-2 1v5h-2l-2-10-1-13-3-219-2-325 4-8 10-7 26-12 30-13 33-15 27-12 25-11 39-17 103-45 60-26 27-12 14-6 18-8 21-10z"/><path fill="#632E03" d="m973 367 5 1 16 8 19 9 17 9 9 4 2 1v2l5 2 23 11 9 3 26 13 7 3 10 5v2l6 2 17 8 19 10 12 5 15 8 7 3 12 6 13 8 4 4v2l3 1-1 3 3 1 1 4v21l-1 23-1 22v117l-1 24v32l-1 39v10l-3 51-1 13-1 10-2 15-1 11-1 4-2 30-3 24-1 11-1 4v7l-4 9-1 8h-3l-2 7-2 6h-2l2-10 1-20 1-399 1-23v-12l-1-4-4-2-21-11-22-10-22-12-25-12-15-8-16-8-21-10-18-10-23-11-9-4v-2l-5-1-22-11-1-2 7 2-1-2 5 2 24 12 10 2 4 1h6v-7l-2-1 4-3 8 1-2-6-1-5-2-5h-2l-1-3-9-2-5-5-10-7-10-5v-3l2-2-4-1h-3l-8-6-6-4v-2l-5-2z"/><path fill="#FCFCFD" d="m950 701 6 2 12 8 28 17 9 5 5 5 4 8v3l-4 4-1 52-2 27v19l-1 19v15l1 14 1 35v43l-1 23-1 3-2 18-3 10-3-1-3-13-4-2-9 1-1 1-4 39-3 53-4 5-2-2-3-7h-1l-3 13-1 4h-2l-1-13v-36l-3-70-1-103-1-17-1-33-1-139-1-8z"/><path fill="#AF7F42" d="m373 659 2 3 4 11v2l4-1 1 4h6l4 6 4 2 1 7h2l1-4 3-9 2-5 1-8 2-2v2h2l1-2 1 13 1 1 2 152 1 112 1 32 2 23 2 13h-3l-2-7-1-13-2 10-1 14-5 2-7-1h-7l-2-1v-2l-10 2-6-3-2-11-1-19-2-3-1-8-2-1v16l-1 10 1 2v7l-1 4v21l1 11-1 4-2 1v5h-2l-2-10-1-13v-74l1-141 2-86 1-28 1-1 1-15 1-9 1-12h2z"/><path fill="#753C04" d="m369 970 3 1 1 8 2 5 1 20 2 8 7 2 8-1v2h10l7 1 3-2 1-13 2-10 2-2 1 15 1 7h3l7 16 3 6 1 5 3 4v2h2l4 4v2l4 2 4 4v2l4 1 9 8 14 10 12 8 15 12 4 6 2 1 2 11 4 2 6 4v2l7 2 1 3 5 1 5 3 2 1v3h3l5 5 10 7 11 6 10 5 9 6 24 15 13 8 25 15 60 30 11 6 13 7 3 3 25 15 8 5 7 7 1 6h-7l-5-4-14-7-7-3-13-8-11-5-7-3-19-9-30-15-15-8-16-8-7-3-6-4v-2l-5-1-6-3-7 3v2l5 5 4 2 4 5-10-1-4-1v3l-5-2-22-12-17-10-21-13-19-12-20-13-25-16-33-22-22-15-16-12-10-8-16-15-14-15v-6l3-1-1-22v-15l1-4v-7l-1-3z"/><path fill="#DDB076" d="m805 276 3 1-1 9-10 2-41 18-16 7-15 7-33 15-10 5-13 5-17 8-25 11-19 8-9 4-13 6-10 4-24 10-23 10-11 4-8 4-7 3-13 5-1 1 16-1 10-3 6-2 11 2 8 7-2 5-3 6-4 2v5l-10 6-4 2-1 2 2 1-7 4-12 7-12 6-10 7-4 3-16 6h-3l-1 4-4 2-3 3-15 6-14 6h-5l-4-1-7-1v-2h-8l-3-1v2l-4 3-8 2-2 4-6 13-1 8h-2v20l-1 16-1 56v32l-1 17-1 35v112l-1 130-1 7h-1l-2-152-2-325 4-8 10-7 26-12 30-13 33-15 27-12 25-11 39-17 103-45 60-26 27-12 14-6 18-8 21-10z"/><path fill="#FBFBFB" d="m570 527 4 1 5 3 7 7 1 4h2l6 10 8 11 12 19 13 18 13 16 2 2 1 8h2v2h-8l-24-5-2-1h-16v51l1 32-5 4-15 5-5 3-11 5-6 2h-7l1-36 1-28v-38l-22 5-9 3-5 1h-12l-3-2 1-6 10-15 7-11 14-20 10-13 13-17 13-18z"/><path fill="#C48D43" d="m809 288 6 2 8 4 16 7 28 13 21 10 9 5 13 6 3 1 1 2 8 3 19 10 13 7 7 4 10 4 11 6v2l4 2 8 5v2h4l6 2-1 2h-2v3l4 1 10 6 6 4 5 4 3 2 8 2 1 2 3 4v6l2 2v5h-9l-2 2 2 6v3h-10l-5-2-8-2-19-10-7-3 1 2-12-3v-2l-5-1-23-11v-2l-9-3-16-8-14-6v-2l-10-3-18-8-12-5-16-8-27-13-15-9-4-1-9 3-13 6-3-1 6-2v-2l8-3 10-6 5-1z"/><path fill="#FAFAFA" d="m1037 537 6 1 8 7 18 27 8 10 5 5v2h2l7 9 9 10 2 5h2l6 8 6 13-1 2-8-1-1-1-14-3-18-6-8-2v101l-1 5 1 2-4-2-8-5-9-6-15-11-7-5-3-4v-11l3-8 2-36v-20l-19 3-23 7-11 1v-5l3-4 2-6 12-16 12-17 8-10 8-11 3-4h2l2-5 7-10 5-8z"/><path fill="#753B04" d="m973 367 5 1 16 8 19 9 17 9 9 4 2 1v2l5 2 23 11 9 3 26 13 7 3 10 5v2l6 2 17 8 19 10 2 1v2h3l1 5 1 4 21 5 8 3 10 7 6 3 10 10 2 5v7l-3 9-2 7-7 2-10-1-13-5-6-1-7-1-9-3-16-8-23-12-23-11-15-8-16-8-21-10-18-10-23-11-9-4v-2l-5-1-22-11-1-2 7 2-1-2 5 2 24 12 10 2 4 1h6v-7l-2-1 4-3 8 1-2-6-1-5-2-5h-2l-1-3-9-2-5-5-10-7-10-5v-3l2-2-4-1h-3l-8-6-6-4v-2l-5-2z"/><path fill="#FCFCFD" d="m1067 783 7 1 10 5 27 18 13 9 1 1-1 100-1 37-2 30-2 7-4 1-3-5-4-10-9-10-3-3-6-1-3 9-6 2-4 10-3 7-4 1-2-16-1-26-1-54v-78z"/><path fill="#E5E9EB" d="M949 706h1l1 5 1 139 1 33 1 17 1 103 3 70v49h2l1-8 2-9h3l4 8 3-4 2-39 2-25 3-28 2-2 11-1 3 2 3 14 2 1 3-15 1-13 1-3 1-23v-43l-1-40-1-9v-22l1-12v-20l2-26 1-52 2-1 1 120 1 84 1 127 1 44 1 7-10 6-21 12-11 5-8-1-1-1-2-12-2-18-1-1h-2v18l-2 20-3 3-2-1 1-1-2-265zm115 74 4 1 2 2h-3l1 9-1 26v78l1 54 1 26 2 15h3l3-11 4-7 6-1 3-9h6l5 5 9 11 5 12h4l2-19 1-18 1-37 1-86 1-12 2 1v245l-7 6-11 7-10 8-15 8-10 3-4 2-3 3-2-1-1-141z"/><path fill="#9B6426" d="m369 829 2 1 3 15-1 4 2 5v11l1 8 1 2-1 3h2l1 5 6 2 9 2 2 5v3h2l-1 7 3 1-1 2 2 1 1-8 3-8h3l1-10 2-5 1-7h2l1-2 1 21 1 53 1 3 1 32 2 23 2 13h-3l-2-7-1-13-2 10-1 14-5 2-7-1h-7l-2-1v-2l-10 2-6-3-2-11-1-19-2-3-1-8-2-1v16l-1 10 1 2v7l-1 4v21l1 11-1 4-2 1v5h-2l-2-10v-79l1-24v-41l1-37 1-15 2-10h2l-1-5z"/><path fill="#8D5415" d="m369 970 3 1 1 8 2 5 1 20 2 8 7 2 8-1v2h10l7 1 3-2 1-13 2-10 2-2 1 15 1 7h3l3 9h-2l1 9 4 14 2 3v7l5 5v4l2-1v7h2l2 4 2-1 2 4 2-2 2 5v3l5 2 7 6v2h2v2l4 1 3 2v2l4 2 4 4v2h-5l-1-1 1 5 4 4 3 4-1 2-7-3v-2l-12-3-2-2h-5v3l5 4 3 1 1 4h2l1 5h-4l-1 2-18-12-22-15-16-12-10-8-16-15-14-15v-6l3-1-1-22v-15l1-4v-7l-1-3z"/><path fill="#E5E9EB" d="m891 525 2 3 1 297 2 95 1 40 1 66 1 151 1 19-6 4-12 6-8 7-4 1-2-7v-17l1-23 2-32 6-20 2-21v-20l1-21 3-17 4-18 3-7 2-19 1-14-2-196-1-237 1-1z"/><path fill="#AA6E25" d="m917 339 19 9 14 8 11 6 10 4 11 6v2l4 2 8 5v2h4l6 2-1 2h-2v3l4 1 10 6 6 4 5 4 3 2 8 2 1 2 3 4v6l2 2v5h-9l-2 2 2 6v3h-10l-5-2-8-2-19-10-7-3 1 2-12-3v-2l-5-1-23-11v-2l-9-3-16-8-14-6v-2l-10-3-18-8-10-4v-2l3-1 6 2v2l9 2 35 15 10 2 3-1-1-4-4-2-1-3 1-3v-10l-6-7v-2l-2-1-4-9v-2l-2-4z"/><path fill="#B48B57" d="m373 659 2 3 4 11v2l4-1 1 4h6l4 6 4 2 1 7h2l1-4 3-9 2-5 1-8 2-2v2h2l1-2 1 13 1 1 1 70v72h-1l-2-60-3 4-2 9-2 15-3 9-4 5v-2l-3-1-1-6-4-1-4-4-3-2-3-1-2-1 4-3-4-2-4-10-2-20-2-9h-2l-2 22-2 16-1 57-1 10h-1v-33l2-86 1-28 1-1 1-15 1-9 1-12h2z"/><path fill="#874908" d="m973 367 5 1 16 8 19 9 17 9 9 4 2 1v2l5 2 23 11 9 6 16 8 9 3 1 3-3 2v2l12 6 10 4 6 3v2l5 2 10 9 4 2 3 6v6l-6 2-5 3-5-1v-2l-9 1-3-1 2 3v3l-3 1-4-3-7-1-2-3-7-1-1-3-11-1-3-3-7-3-10-4-13-8-9-4-21-10-12-6 4-1 6 2h8v-7l-2-1 4-3 8 1-2-6-1-5-2-5h-2l-1-3-9-2-5-5-10-7-10-5v-3l2-2-4-1h-3l-8-6-6-4v-2l-5-2z"/><path fill="#C79D62" d="M409 574h3l1 11 1 93h-1l-1-11h-3l-2 10-3 11-3 5h-2l-1-7-5-2-3-5h-5l-2 1-1-5h-3l-6-15-3 3-1 17-1 7-1 11-1 3-1 33-2 79h-1V712l1-37 2-43 1-19 1-14 1-2 1-10 2-4 3-1 3 6v2l5-4 4 8h4l2 1 2 5h2l2-5 4-1 2-9 3-9z"/><path fill="#CDA977" d="M390 504h7l4 1v2h10l1 1 9-1v2l-7 3v147h-1l-1-74-1-10-3 1-6 18-4 2-2 5-4-2v-4l-6 1-3-5-1-4-3 3h-2l-3-6h-3l-2 13-1 3-2 32-2-4 1-60 1-21 1-11h2l-1-3 3-10 5-9 5-5 9-3z"/><path fill="#D7E0DE" d="M1126 820h1v245l-7 6-11 7-10 8-15 8-10 3-4 2-3 3-2-1V995l1 4h2l2 53 3-5 4-6 1 4 4 3 3-1 2-5 2-1 2-6 4-4 1 3 4-1 3 2v2l9-2-1 4h4l2 2 2 8 2 1 1-3 1-21-1-1 2-103 1-90z"/><path fill="#9A6325" d="m1202 535 5 3 1 16 1 15v13l3 21 1 22v11l-1 13 1 4-1 19v45l-1 17v65l-1 17-2 73v18l-3 47-1 18-2 13h-1l1-411 1-23v-12z"/><path fill="#753B03" d="m1207 538 7 1 1 3h2v2l3 1v16l1 4-1 9v14l1 10v25l1 17-1 10v17l-1 36-1 2 1 6-1 18-1 35-1 8 1 2-1 21v31l-1 6v25l-1 7-2 20-1 7v7l-2 20-1 19-2 18-2 10h-1v-11l3-48v-17l1-43 1-36 1-18v-65l1-17v-44l1-14-1-4 1-13v-13l-1-19-2-11-1-14v-14l-2-19z"/><path fill="#884A09" d="m373 1049 3 4v2l3 1 5 5 3 2v2l4 1v2l23 3 1-5 5-2h4l2-5h2l2-5 2-1 2 4 2 2v3l2-1v7h2l2 4 2-1 2 4 2-2 2 5v3l5 2 7 6v2h2v2l4 1 3 2v2l4 2 4 4v2h-5l-1-1 1 5 4 4 3 4-1 2-7-3v-2l-12-3-2-2h-5v3l5 4 3 1 1 4h2l1 5h-4l-1 2-18-12-22-15-16-12-10-8-16-15-8-9z"/><path fill="#D6DDDA" d="m779 500 1 3v36l-1 80v225l1 88 3 159 3 98 2 27 3 9-3-1-4-9-3-8-2-1-3-7-2-12-2-23-1-21v-48l4-40 2-18V874l-1-133V615l1-20 1-94z"/><path fill="#632E03" d="m613 1198 11 5v2l5 2 4 3 7 3 16 8 27 13 12 7 11 5 14 7 10 4 8 4 10 6 24 12 2 2 7 1-3-8-5-3v-2l-5-2-13-8-15-9-3-3 6 2 6 3v2l5 2 12 6h4v2l5 1v2l6 1h11l11 5 10 3 1 4-5 7h-3l-1 8-4 1-1 5-1 1-14-1-10-5-2-4-5-1-5-5-5-4-1-2-7-3-8-6v-2l-4-1-10-7-13-7-4-1v-2l-9-3-8-4-13-5-10-5-7-2-5-2 1 6-2 1v-2h-11l-4-3-6-2-2-2-7-3-7-2-16-8v-2l13 2-3-2v-2l-4-1-5-5v-4z"/><path fill="#D7DFDE" d="M603 746h1v33l1 31 1 14 2 51 1 38 2 44v49l1 49 2 11 1 1 2-8 2-14 2-6h2l2 6 2 22 1 37-1 15-1 4h-2l-1 3-5 2h-7v2l-5-1 2-1-1-19-2-141-2-125-1-36v-58z"/><path fill="#DBAF74" d="m1252 498 4 5 1 280 1 132v133h-1l-1-13-3-114-1-56-1-10V511z"/><path fill="#FAFAFB" d="m805 276 3 1-1 9-10 2-41 18-16 7-15 7-33 15-10 5-13 5-17 8-25 11-19 8-9 4-13 6-10 4-24 10-23 10-11 4-8 4-7 3-13 5-11 5-14 5-7 3-21 8-9 4-8 3h-5l4-3 36-16 22-10 20-9 60-26 28-12 41-18 27-12 60-26 27-12 14-6 18-8 21-10z"/><path fill="#D6DEDC" d="M1010 752h1l1 120 1 84 1 127 1 44 1 7-10 6-21 12-8 4-5-1v-2l-2-1 2-3 1-9 3-9 3-11 2-4 5-8 5 2 2 3h-3l-2-2-1 2 5 2 4 1 3-5 2-7h2l-1-3 2-6h1v20l2 7-1 7 2-11-1-10v-14l1-11 1-32V929l-1-80 1-96z"/><path fill="#8D5414" d="m973 367 5 1 16 8 19 9 1 3 5 2 2 1v3l4 1 4 2v2h5l8 4-4 1-5-1 3 3 12 7 8 4v2l3-1 5 3v2l3-1 10 6v2l7 2 4 6-1 4 1 3 2 1-4 6-8-1-4 3 2 7-3 2h-6l-10-6-9-4-21-10-12-6 4-1 6 2h8v-7l-2-1 4-3 8 1-2-6-1-5-2-5h-2l-1-3-9-2-5-5-10-7-10-5v-3l2-2-4-1h-3l-8-6-6-4v-2l-5-2z"/><path fill="#F5F5F4" d="m810 277 19 9 15 8 23 11 22 11 23 11 68 34 23 11 17 8 60 30 23 11 39 19 34 17 23 11 25 12 10 6-2 1-41-19-38-18-28-13-48-23-29-14-32-16-26-12-42-21-19-9-16-8-29-14-20-9-29-14-24-11-2-4z"/><path fill="#E5E9EB" d="M1200 535h2l2 4v12l-1 23-1 399-1 20h-1l-1-96-1-80v-19l-1-13v-19l-1-32V627l3-24 1-35z"/><path fill="#D7DFDE" d="m898 411 5 1 24 11 52 25 26 12 17 9 44 21 17 9 23 11 28 13 16 7 16 8 11 6 6 6 1 3v139l2 43 1 120v103l-2 23-2 13-3 10-3 6-1-3 4-13 3-21 1-18v-85l-2-127-1-50V552l-5-5-18-10-34-16-16-7-16-8-29-14-19-9-16-8-17-8-38-19-24-11-42-21-9-4z"/><path fill="#101A21" d="m808 284 5 2 28 13 31 15 20 9 28 13 19 10 46 22 16 8 17 8 17 9 23 11 39 19 26 12 21 10 28 13 27 13 26 12 15 6 9 6 1 3-6-2-16-7-16-8-9-4-19-9-7-3-10-5-7-3-14-7-16-7-19-9-28-14-5-2-9-3-28-14v-2l-6-2-16-8-25-12-16-8-10-3-9-4-14-8-17-9-10-5-5-2v-2l-5-1-11-5-19-10-28-13-19-9-11-4-12-6z"/><path fill="#D5DBD7" d="M896 960h1l1 66 1 151 1 19-6 4-12 6-7 6-5-1 1-13 4-11h2l1-3 2 1 5-12 2 1v14l-1 8 3-9 1-14-1-4 1-9v-9l2-16 1-58 1-26z"/><path fill="#CFC9BA" d="M833 542h1l2 86 1 32 1 200 1 161v194l-3 10-3 3-2-1 3-4 2-7v-154l-2-391-1-84z"/><path fill="#B9833E" d="m804 285 3 1v38h-1l-1-21-2-9v-6l-13 5-16 8-10 4-26 12-14 7-10 3-17 8-5 4-18 8h-4l-1 3-18 8-7 1v2l-17 8-8 4-7 4-9 4-13 5-14 7-6 2-10 4-12 4h-8l-1 3-13 5-10 1v2l-11 4-9 4-4 2-4-1 4-3 13-5 8-4 11-4 12-5 16-7 36-15 13-6 35-15 29-13 13-6 7-3 31-14 20-9 24-11 40-17z"/><path fill="#D2CEC1" d="M717 612h1l2 26 1 24 1 48 1 93 1 136 1 34 1 135v84l-2 1-1-67-1-108-2-170-1-122-2-76z"/><path fill="#88521B" d="M1250 514h1l1 341 1 10 1 56 3 114 1 18-2-1-1 2h-2l-1-2h-2z"/><path fill="#CAA572" d="M1204 543h1v47l1 42v78l-1 144-1 95-1 26-1 10h-1l1-411 1-23z"/><path fill="#071823" d="m527 1107 5 2 22 14 24 14 17 10 28 15 35 20 15 9 21 11 8 5 23 11 23 12 24 14 18 10 6 5 9 4 4 2h-6l-14-7-10-6-11-6-10-6-10-5-20-11-13-6-19-9-13-8-16-8-12-7-13-8-15-9-12-7-20-11-11-7-10-5-3-3-11-6-17-11-15-10z"/><path fill="#9A6325" d="m1013 397 6 2 4 4 6 4 8 2 1 2 3 4v6l2 2v5h-9l-2 2 2 6v3h-10l-5-2-8-2-19-10-6-3 4-1 8 3 4 2h4l2-5h4l1-6 4-1 2 1-2-11-4-6z"/><path fill="#E4E6E3" d="M566 382h3v2h2v2l5-1-2 2-10 4-12 5-23 10-11 4-8 4-7 3-13 5-11 5-14 5-7 3-21 8-9 4-8 3h-5l4-3 36-16 22-10 20-9 60-26z"/><path fill="#D4D4CB" d="m430 532 2 2 1 43 1 85 1 172 1 120 2 29 3 13-1 3-5-16-1-5-1-16-1-46V730l-1-122z"/><path fill="#DBDCD6" d="M949 706h1l1 5 1 139 1 33 1 17 1 103v25l-1 15-1 112h-1l-2-257z"/><path fill="#8E5515" d="M1207 554h1l1 15v13l3 21 1 22v11l-1 13 1 4-1 19v45l-1 17v65l-1 17-2 73v18l-1 12h-1v-35l1-57 1-43V598l-1-13z"/><path fill="#D9E4E6" d="M1182 661h1l2 52 1 22 1 120v103l-2 23-2 13-3 10-3 6-1-3 4-13 3-21 1-18v-85l-2-127-1-50v-31z"/><path fill="#AF7E40" d="m905 341 8 2 4-1 1 4 2 3v3l6 10 5 6v10l-1 4 5 6v2h-2l-1 2-10-2-16-7-14-6 4-2 4 2 4 1h7l2-3-2-6 1-9-4-9-3-4z"/><path fill="#E5E9EB" d="M621 1039h2l2 6 2 22 1 37-1 15-1 4h-2l-1 3-5 2h-5l6-10 1-13-1-18-5-8-2-10v-6l3 4 2-8 2-14z"/><path fill="#D9DFDD" d="m779 500 1 3v36l-1 80v328h-1l-1-73-1-133V615l1-20 1-94z"/><path fill="#3C2F1E" d="m978 421 7 2-1-2 5 2 16 8 21 10 17 9 11 5 12 6 8 5 8 3 6 3v2l6 2 7 4 5 3 7 3 8 4 8 5 9 5 5 2 12 7-1 2-23-12-23-11-15-8-16-8-21-10-18-10-23-11-9-4v-2l-5-1-22-11z"/><path fill="#8C5824" d="m804 285 3 1v38h-1l-1-21-2-9v-6l-13 5-16 8-10 4-26 12-14 7-10 3-17 8-5 4-18 8h-4l-1 3-18 8-7 2h-5l1-3 25-11 13-6 7-3 31-14 20-9 24-11 40-17z"/><path fill="#E5E9EB" d="M776 1050h1v24l-1 11v15h1v19l-1 2 1 43 1 11v18l3 9 1 5-3-1-3-7-2-12-2-23-1-21v-48l4-40z"/><path fill="#CBC2AE" d="m891 525 2 3v314h-1l-1-60-1-237 1-1z"/><path fill="#CFC4B0" d="M833 542h1l2 86 1 32v173l-1 21h-1l-1-183-1-84z"/><path fill="#D0C8B8" d="M551 799h1v277h-1l-1-98h-1V823l1-21z"/><path fill="#D2D4CC" d="m860 366 6 2 10 5 17 7 14 6v2l9 3 23 11 7 3v2l5 1 23 11v2l9 3 23 11v2l9 3 19 9 1 3-10-3-19-10-25-12-17-8-76-38-26-12-2-1z"/><path fill="#C7A06B" d="m1252 498 2 2 1 16h-3l1 2v178l-1 159h-1V511z"/><path fill="#DEE9EC" d="M1201 748h1v225l-1 20h-1l-1-96-1-80 2-3z"/><path fill="#805727" d="m871 368 7 2v2l9 2 35 15 48 24 12 5v2l4 1v3l-12-3v-2l-5-1-23-11v-2l-9-3-16-8-14-6v-2l-10-3-18-8-10-4v-2z"/><path fill="#A67539" d="M1251 855h1l1 10 1 56 3 114 1 18-2-3-2-1-1-5-1-74-1-50z"/><path fill="#CFCBBC" d="m494 821 2 1-5 5v99l1 126-2 1-2-1 1-2 2 1-1-8-1-31-1-63V828l4-6z"/><path fill="#B68343" d="m631 415 3 1-30 14-52 23-82 36-36 15-10 4-3-1 10-5 17-7 11-4 15-7 12-5 18-8 11-5 12-5 5-3 7-1 1-3 11-4h4v-2l7-3h4v-2l9-4 15-6 8-4 10-4z"/><path fill="#DDE9EC" d="M724 973h1l1 135v84l-2 1-1-67v-120z"/><path fill="#CCC3B0" d="m1064 780 4 1 2 2h-3l1 9-1 26v128h-2v14h-1z"/><path fill="#632E03" d="m491 1087 4 2 10 8 4 6 2 1 2 11 4 2 6 4v2l7 2 1 3 5 1 5 3 2 1v3h3l9 9-5-2-7-5-6-3-3-2v-2l-4-1-11-7v-2l-8-4-5-5-7-6v-2h-2l-9-9 1-4 3-2z"/><path fill="#DAE8EB" d="m805 338 6 2 17 10 16 8-3 1-17-8-16-8-9 2-11 4-13 5-8 5-27 12-10 5-9 4-13 5-8 4-12 5-4 2-4-1 23-10 15-7 50-23 12-7 20-9z"/><path fill="#D2D5CD" d="M1010 752h1v189h-1l-1-12-1-80 1-96z"/><path fill="#DAE8EC" d="M953 1043h2l2 83 1 16-2 20-3 3-2-1 1-1z"/><path fill="#C3B295" d="M952 953h1l1 52 1 23-1 15-1 112h-1l-1-119v-82z"/><path fill="#B38B57" d="m1203 589 2 1 1 42v78l-1 120h-1l-1-187z"/><path fill="#CEC9BA" d="M721 869h2l1 70v67l-1 12h-1l-1-75z"/><path fill="#3D1B08" d="m1038 451 6 2 30 15 7 2 16 8 9 5 7 3 8 4 8 5 9 5 5 2 12 7-1 2-23-12-23-11-15-8-16-8-21-10-18-10z"/><path fill="#D1CEC2" d="M603 746h1v33l1 31 1 14 1 28v19l-1 2-1 25h-1l-2-91v-58z"/><path fill="#3A2B1B" d="m776 349 2 1-16 9-28 13-30 13-15 7-52 23-3-1 16-8 28-12 11-5 17-7 5-3 10-4 7-4 7-3 10-4 5-3h4v-2l9-4z"/><path fill="#D6DDDB" d="M893 825h1l2 95v37h-1l-2-16-1-52v-47z"/><path fill="#E6EAEB" d="m1254 501 2 2v146h-1l-1-54-1-11v-31l1-45z"/><path fill="#B9823D" d="m638 358 6 2-4 3-17 8-7 4-13 6-6 1 3-5-4-1 11-4 8-4z"/><path fill="#AA6E26" d="m364 870 3 2-1 4-1 66v48l-2 16h-1v-44l1-24v-41z"/><path fill="#BA915A" d="M807 277h3l-1 11 1 1v44l-3 2-3-1-1-6-1-16v-13l3 1 1 3z"/><path fill="#DDE8EA" d="M550 977h1l1 99 2 11h-2l-2-7-1-7-1-36v-22l1-37z"/><path fill="#7C430B" d="m395 1079 5 2 8 7 3 3 5 2v2h3l8 8 10 4v3l6 2 1 3h5v2l6 3 5 5 2 4-11-7-17-11-20-14-18-14z"/><path fill="#7C4816" d="m1174 1046 1 2-5 10-4 1v2l-5 3-5 5h-2l-1 3-7 6-4 1-4 4-1 3-9 4-3-2 8-6 16-13 5-4h2v-2l7-6h2l1-3h2l2-4z"/><path fill="#E2E7E7" d="M1199 884h1l1 5h1v84l-1 20h-1l-1-96z"/><path fill="#DBE9ED" d="M773 352h2l-1 3-16 8-18 8-10 5-9 4-13 5-8 4-12 5-4 2-4-1 23-10 15-7 50-23z"/><path fill="#CECBBD" d="M723 1082h1v40h2v70l-2 1-1-67z"/><path fill="#CAA26B" d="M1254 926h1l1 5 1 19v85h-1l-2-79z"/><path fill="#A97538" d="m804 285 3 1v38h-1l-1-21-2-9v-6l-13 5-16 8-9 3-3-1 14-7 24-10z"/><path fill="#85501D" d="m548 397 4 1-5 3-7 1-1 4-13 5-10 1v2l-11 4-9 4-4 2-4-1 4-3 13-5 8-4 11-4 12-5z"/><path fill="#DBE9ED" d="m1105 510 12 5 21 10 10 4 16 8 13 7 6 6-1 3-4-5-22-12-28-13-20-9-3-2z"/><path fill="#9A6325" d="M980 372h2v2l4 2 8 5v2h4l6 2-1 2h-2v3l4 1-4 1-4-3-6-2v-2l-8-2v-2h-2v-2l-4-1 1-4h2z"/><path fill="#DBE9EC" d="M1200 535h2l2 4v12l-2 56-2-4z"/><path fill="#CBC0AB" d="M717 612h1l2 26v52h-1l-1-5-1-35z"/><path fill="#A8763C" d="M484 424h3v2l-12 4-11 5-5 3-8 2-9 4-4 2-12 3-5 2-3-1 6-3 12-4 11-5 17-6 10-4z"/><path fill="#1F1D1B" d="m808 284 5 2 28 13 17 9v2l-6-2-21-10-11-4-12-6z"/><path fill="#99784C" d="m823 345 5 2 10 5 10 4 6 3v2l5 1 9 5v2l-9-3-15-7-20-10-3-3z"/><path fill="#DBE9ED" d="M1201 831h1v58l-2 4-1-9v-50z"/><path fill="#A77D4C" d="m783 1309 8 1v2l13 3 3 4 5 1 1-3h8l-10 8-6-2-10-6-12-7z"/><path fill="#1F1917" d="m1038 451 6 2 30 15 7 2 16 8 2 4-9-3-23-12-16-8-13-7z"/><path fill="#1D201E" d="m776 349 2 1-16 9-28 13-18 8-3-1 15-8 7-3 10-4 5-3h4v-2l9-4z"/><path fill="#D7DCD8" d="m898 411 5 1 24 11 29 14 9 4-1 3-16-8-39-19-11-5z"/><path fill="#663002" d="m1034 449 7 1 9 3 16 8 8 5 8 3 6 3-3 1-6-3-9-3-30-15-6-2z"/><path fill="#A06E33" d="m482 481 3 1-15 7-36 15-10 4-3-1 10-5 17-7 11-4 15-7z"/><path fill="#763C04" d="M1252 970h1l1 74 1 5h2l-2 5h-2l-1-2h-2l1-16z"/><path fill="#D2D3CB" d="M893 825h1l1 63-3 1v-47z"/><path fill="#D7DFDD" d="m433 1033 4 2 15 15 22 18 8 6h-3l-11-8-17-13-13-13-5-6z"/><path fill="#D3D7D0" d="m1036 451 5 2 19 10 19 9 14 7v2l-6-2-16-8-11-5-16-8-7-4z"/><path fill="#B0834A" d="m1203 589 2 1 1 42-1 24h-1l-1-13z"/><path fill="#AD7C3F" d="m760 303 4 2-26 12-14 7-2-1 3-3 4-3 11-5z"/><path fill="#D6CFC1" d="m831 509 2 4 1 1 1 11v55h-1l-1-38-1-6z"/><path fill="#4E1C00" d="m1121 439 5 1 17 8 12 6 7 3 15 7 4 4-6-2-14-6-19-10-21-10z"/><path fill="#825726" d="m631 415 3 1-30 14-23 10-3-1 13-7 13-5 22-10z"/><path fill="#5B2601" d="m1071 415 6 1 2 2 7 3 32 15 3 3-9-3-5-3-5-2-8-2-17-9-6-4z"/><path fill="#E6EAEB" d="M1096 1050h3l2 5 16 9-4 1h-8l-2-1v-3l-2-1-2-2-4 2-2-2z"/><path fill="#D5AA72" d="m802 299 3 1 1 3 1 28-1 3h-2l-1-6-1-16z"/><path fill="#4A2C0E" d="m1014 436 10 4 16 8 3 3-12-2-17-9-4-2z"/><path fill="#E6EAEB" d="M607 907h1l1 6 2 44v9l-1 9h-1l-1-19z"/><path fill="#7C4818" d="m634 360 4 1-10 6-7 3h-4v2l-12 4-3-1 8-5z"/><path fill="#7A4617" d="m723 320 4 1-7 4-10 4-29 13-2-1 8-5 32-14z"/><path fill="#9A6426" d="M1253 976h1l1 62 2 9 1 1v5l-2-3-2-1-1-5z"/><path fill="#DBE9ED" d="m804 365 5 1v2h2l-1 2-14 1-9 3-14 6-3-1 8-4 7-3 15-6z"/><path fill="#423725" d="m871 368 7 2v2l9 2 3 2v2l9 3 6 3-3 1-23-10-10-4v-2z"/><path fill="#AB6F26" d="M367 835h2l1 7-1 8-1 3-1 15-2 2-1-5 1-20z"/><path fill="#7E450C" d="M435 1111h7l2 4h5v2l6 3 5 5 2 4-11-7-16-10z"/><path fill="#071823" d="m440 1042 7 6 10 9 12 9 11 8-3 1-12-9-2-1v-2l-5-2-13-12-5-5z"/><path fill="#CFCDC1" d="m1064 780 4 1 2 2h-3l1 9-1 19h-2z"/><path fill="#5B2701" d="m973 367 5 1 16 8 19 9 1 2-8-2-20-10-13-7z"/><path fill="#A77131" d="m577 438 2 1v2l-25 11-7 3-3-1 7-4h4v-2l7-3h4v-2l9-4z"/><path fill="#0A1922" d="m804 334 4 1 5 6-8-2-9 3-13 6-3-1 6-2v-2l8-3z"/><path fill="#DBE9ED" d="M1184 973h1l-1 18-4 13-3 6-1-3 4-13 3-20z"/><path fill="#814C17" d="M594 377h6v2l-11 4-5 2h-3v2l-5 2h-3l1-3 8-4 11-4z"/><path fill="#B1844C" d="M362 846h1v15h2l-1 25-2 1z"/><path fill="#A16C2F" d="M668 347h2l-1 3-18 8-7 2h-5l1-3 9-3 2 1z"/><path fill="#B58B56" d="M1255 992h1l1 55-2-4-1-8z"/><path fill="#B28852" d="M1203 646h1l1 10 1 2v52h-2z"/><path fill="#DEDDD7" d="m494 821 2 1-5 5-1 32h-1l-1-13v-18l4-6z"/><path fill="#D3D6CE" d="m826 476 6 2-3 1 2 11v18h-1l-3-25z"/><path fill="#612B02" d="m1014 387 5 1 22 11-3 1-9-3h-3l-5-3v-3l-5-2z"/><path fill="#111A1F" d="M805 288h2v36h-1l-1-21-2-9v-4h2z"/><path fill="#D7E1E0" d="m713 380 2 1-3 3-8 3-10 5-10 4-4-1 23-10z"/><path fill="#DBE9ED" d="M740 368h2v2l-12 6-9 4-7 2 4-4z"/><path fill="#7E450D" d="m395 1079 5 2 8 7 3 4-1 2-14-11z"/><path fill="#B38244" d="m511 468 4 1-29 13-2-2 20-9z"/><path fill="#CDB38E" d="M807 277h3l-1 11 1 1v15l-1 7h-1l-1-16z"/><path fill="#D3D8D2" d="m1063 465 6 2 15 8 9 4v2l-6-2-24-12z"/><path fill="#ECEBE7" d="m1210 474 6 2 18 10-2 1-24-11z"/><path fill="#7B4716" d="m1104 1102 2 1-2 3h-3v3l-4 1v2l-2 1h-7l4-4z"/><path fill="#25241E" d="M737 367h3v2l-24 11-3-1 15-8 7-3z"/><path fill="#371A0B" d="M1128 497h5l5 3 5 2 12 7-1 2-23-12z"/><path fill="#905A20" d="M484 424h3v2l-12 4-11 5-5 1 3-3 7-3 10-4z"/><path fill="#4F391F" d="m631 415 3 1-26 12h-2v-2z"/><path fill="#774312" d="M1135 1080h4l-2 6-9 4-3-2 8-6z"/><path fill="#8C5212" d="m982 373 4 1 17 9-4 1h-3l-8-6-6-4z"/><path fill="#77400C" d="m548 397 4 1-5 3-14 5-4 2-3-1 14-7z"/><path fill="#D2AC78" d="m1252 498 2 2 1 16h-3l-1 2z"/><path fill="#A47033" d="m739 313 1 3-16 8-2-1 3-3 4-3z"/><path fill="#071823" d="m918 391 6 2 21 10 1 2-9-3-16-8z"/><path fill="#582606" d="m1197 530 10 1 3 3v2h-7l-5-3z"/><path fill="#D5DCD9" d="m860 366 6 2 10 5 8 3v2l-5-1-19-9z"/><path fill="#604423" d="M441 498h2v2l-19 8-3-1 10-5z"/><path fill="#8A602F" d="m419 995 2 3 2 13h-3l-2-7z"/><path fill="#7D4917" d="m503 416 4 1-5 3-10 4-4-1 4-3z"/><path fill="#AD8653" d="m808 335 15 9v2l-6-1-9-8z"/><path fill="#AA793E" d="m804 285 3 1v2h-2v2h-2v-2l-10 4-3-1 3-2z"/><path fill="#763D06" d="m984 421 5 2 12 6 1 2-5-1-11-5z"/><path fill="#D9DCD8" d="m782 1208 5 4 3 10 1 3-3-1-4-9z"/><path fill="#7B430D" d="M569 388h3v2l-12 5-6 1 3-3z"/><path fill="#C7B29A" d="m783 1309 8 1v2l3 1v2l7 2v2l-6-2-12-7z"/><path fill="#986022" d="m986 421 5 1 7 2 3 3v2l-6-2-9-5z"/><path fill="#94632E" d="m1123 1089 2 1-6 5-1 2h-4l-2 4-4-1z"/><path fill="#CBC1AE" d="M783 471h4l-1 9-2 11h-1l1-13 1-5h-5z"/><path fill="#D4D6CF" d="m950 435 9 3 6 3-1 3-15-7z"/><path fill="#886E4A" d="m823 345 5 2 6 4v2l-6-2-7-4z"/><path fill="#7A4007" d="m427 1103 10 4v4l-4-1-7-5z"/><path fill="#B28954" d="M1203 646h1l1 10 1 2-1 18h-1l-1-17z"/><path fill="#BA905B" d="m1106 616 4 5 6 13-1 2-3-1h2l-8-16z"/><path fill="#D9E6E8" d="M755 361h3v2l-13 6-3-1 5-3z"/><path fill="#653003" d="m1251 1042 2 3 1 5 3-1-2 5h-2l-1-2h-2z"/><path fill="#AF844F" d="m411 452 4 1-10 4-7 1 3-3z"/><path fill="#B37D3B" d="m638 358 6 2-4 3-6 3h-3v-2l6-3-1-2z"/><path fill="#5A2B07" d="m1179 521 7 1 4 2-3 3-8-4z"/><path fill="#B27D3A" d="M538 403h2l-1 3-13 5-4-1z"/><path fill="#D4A76D" d="M803 328h1v7l-7 4-3 1 1-3 5-3z"/><path fill="#632E03" d="m479 1079 5 2 7 5-4 2-5-5z"/><path fill="#7B4410" d="M594 377h6v2l-11 4-2-1 1-2z"/><path fill="#574429" d="M853 362h6l9 5v2l-9-3-6-3z"/><path fill="#642F04" d="m949 355 5 1 11 6-4 1-12-7z"/><path fill="#DBE9ED" d="M805 311h1l1 20-1 3h-2z"/><path fill="#552A08" d="m1034 449 7 1 7 2 1 4-9-4-6-2z"/><path fill="#67330A" d="m692 334 4 1-15 7-2-1 8-5z"/><path fill="#865423" d="M813 1317h8l-5 4-5 1z"/><path fill="#D4D9D4" d="m466 1063 5 2 11 9h-3l-11-8z"/><path fill="#AF7C3D" d="m511 468 4 1-13 6-3-1 6-4z"/><path fill="#D1D2C8" d="m1036 451 5 2 8 4v2l-5-1-7-4z"/><path fill="#87673D" d="m871 368 7 2v4l-9-3v-2z"/><path fill="#875421" d="m1086 1113 2 1-5 6-8 1 5-4z"/><path fill="#643007" d="m1149 505 4 1 7 4v3l-5-1-1-3-5-3z"/><path fill="#AA7A41" d="m458 434 2 1-1 3-10 2 1-3z"/><path fill="#171E20" d="m754 360 1 2-13 6-2-1 10-6z"/><path fill="#622E08" d="m540 1177 5 2 4 4-1 2-9-6z"/><path fill="#9F6B2F" d="m482 481 3 1-13 6v-3z"/><path fill="#6F3703" d="M1092 475h7l4 4v1h-5l-6-4z"/><path fill="#724420" d="m572 1197 5 1 1 3 4 1v2l-5-2-5-3z"/><path fill="#9D682B" d="m1202 535 5 3v7l-2 1z"/><path fill="#824507" d="m1029 396 14 5v1l-8-1-6-2z"/><path fill="#BD8741" d="M629 365h2l-1 3-7 3h-6l4-2z"/></svg>